<svg t="1586675456793" class="icon" viewBox="0 0 1024 1024" version="1.1" xmlns="http://www.w3.org/2000/svg" p-id="1320" width="200" height="200"><path d="M113 489.5C113 268.9 291.6 90 512 90s399 178.9 399 399.5S732.4 889 512 889 113 710.1 113 489.5z" fill="#333F50" p-id="1321"></path><path d="M194.2 607.6l0.5 1.8 0.2 1.8-0.1 1.8-0.4 1.7-0.6 1.6-0.9 1.5-1.1 1.4-1.3 1.2-1.5 1-1.7 0.8-1.8 0.5-1.8 0.2-1.8-0.1-1.7-0.4-1.7-0.6-1.5-0.9-1.4-1.1-1.2-1.3-1-1.5-0.8-1.7-1-2.9-1-2.9-0.9-2.9-0.9-2.9-0.9-2.9-0.9-2.9-0.9-2.9-0.8-2.9-0.8-2.9-0.8-2.9-0.8-2.9-0.7-2.9-0.7-2.9-0.7-2.9-0.7-2.9-0.6-2.9-0.6-2.9-0.6-2.9-0.6-2.9-0.5-2.9-0.5-2.9-0.5-2.9-0.5-2.9-0.4-3-0.4-3-0.4-3-0.4-3-0.4-3-0.3-3-0.3-3-0.3-3-0.3-3-0.2-3-0.2-3-0.2-3-0.2-3-0.1-3-0.1-3-0.1-3-0.1-3v-15l0.1-3 0.1-3 0.1-3 0.1-3 0.2-3 0.2-3 0.2-3 0.2-3 0.3-3 0.3-3 0.3-3 0.3-3 0.4-2.9 0.4-2.9 0.4-2.9 0.4-2.9 0.4-2.9 0.5-2.9 0.5-2.9 0.5-2.9 0.5-2.9 0.6-2.9 0.6-2.9 0.6-2.9 0.6-2.9 0.7-2.9 0.7-2.9 0.7-2.9 0.7-2.9 0.7-2.9 0.8-2.9 0.8-2.9 0.8-2.9 0.8-2.9 0.9-2.9 0.9-2.9 0.9-2.8 0.9-2.8 1-2.8 1-2.8 1-2.8 1-2.8 1-2.8 1.1-2.8 1.1-2.8 1.1-2.8 1.1-2.8 1.2-2.8 1.2-2.8 1.2-2.8 1.2-2.8 1.3-2.7 1.3-2.7 2.6-5.4 1.4-2.8 1.4-2.7 1.4-2.7 1.4-2.7 1.4-2.7 1.5-2.6 1.5-2.6 1.5-2.6 1.5-2.6 1.5-2.6 1.6-2.6 1.6-2.6 1.6-2.5 1.6-2.5 1.6-2.5 1.6-2.5 1.7-2.5 1.7-2.5 1.7-2.5 1.7-2.4 1.7-2.4 1.8-2.4 1.8-2.4 1.8-2.4 1.8-2.4 1.8-2.4 1.9-2.3 1.9-2.3 1.9-2.3 1.9-2.3 1.9-2.3 1.9-2.3 2-2.2 2-2.2 2-2.2 2-2.2 2-2.2 2-2.2 2.1-2.1 2.1-2.1 2.1-2.1 2.1-2.1 2.1-2.1 2.1-2.1 2.2-2 2.2-2 2.2-2 2.2-2 2.2-2 2.2-2 2.3-1.9 2.3-1.9 2.3-1.9 2.3-1.9 2.3-1.9 2.3-1.9 2.3-1.8 2.4-1.8 2.4-1.8 2.4-1.8 2.4-1.8 2.4-1.7 2.4-1.7 2.4-1.7 2.5-1.7 2.5-1.7 2.5-1.6 2.5-1.6 2.5-1.6 2.5-1.6 2.5-1.6 2.6-1.5 2.6-1.5 2.6-1.5 2.6-1.5 2.6-1.5 2.6-1.4 2.6-1.4 2.6-1.4 2.7-1.4 2.7-1.4 2.7-1.3 2.7-1.3 2.7-1.3 2.7-1.3 2.7-1.3 2.7-1.2 2.8-1.2 2.8-1.2 2.8-1.2 2.8-1.2 2.8-1.1 2.8-1.1 2.8-1.1 2.8-1.1 2.8-1 2.8-1 2.9-1 5.7-1.9 3.7-0.6 3.5 0.6 3.2 1.6 2.6 2.5 1.7 3.3 0.6 3.6-0.6 3.5-1.6 3.2-2.5 2.5-3.3 1.7-5.4 1.8-2.7 0.9-2.7 1-2.7 1-2.7 1-2.6 1-2.6 1-2.6 1.1-2.6 1.1-2.6 1.1-2.6 1.1-2.6 1.1-2.6 1.2-2.6 1.2-2.5 1.2-2.5 1.2-2.5 1.2-2.5 1.3-2.5 1.3-2.5 1.3-2.5 1.3-2.5 1.3-2.5 1.4-2.4 1.4-2.4 1.4-2.4 1.4-2.4 1.4-2.4 1.5-2.4 1.5-2.4 1.5-2.4 1.5-2.3 1.5-2.3 1.5-2.3 1.6-2.3 1.6-2.3 1.6-2.3 1.6-2.3 1.6-2.3 1.7-2.2 1.7-2.2 1.7-2.2 1.7-2.2 1.7-2.2 1.7-2.2 1.8-2.2 1.8-2.1 1.8-2.1 1.8-2.1 1.8-2.1 1.8-2.1 1.9-2.1 1.9-2.1 1.9-2 1.9-2 1.9-2 1.9-2 2-2 2-2 2-2 2-1.9 2-1.9 2-1.9 2-1.9 2.1-1.9 2.1-1.9 2.1-1.8 2.1-1.8 2.1-1.8 2.1-1.8 2.2-1.8 2.2-1.8 2.2-1.7 2.2-1.7 2.2-1.7 2.2-1.7 2.2-1.7 2.3-1.7 2.3-1.6 2.3-1.6 2.3-1.6 2.3-1.6 2.3-1.6 2.3-1.5 2.4-1.5 2.4-1.5 2.4-1.5 2.4-1.5 2.4-1.5 2.4-1.4 2.4-1.7 2.8-1.4 2.5-1.4 2.5-1.4 2.5-1.3 2.5-1.3 2.5-1.3 2.5-1.3 2.5-1.2 2.5-2.5 5.2-1.2 2.6-1.2 2.6-1.2 2.6-1.1 2.6-1.1 2.6-1.1 2.6-1.1 2.6-1.1 2.6-1 2.6-1 2.6-1 2.6-1 2.6-0.9 2.7-0.9 2.7-0.9 2.7-0.9 2.7-0.9 2.7-0.8 2.7-0.8 2.7-0.8 2.7-0.8 2.7-0.7 2.7-0.7 2.7-0.7 2.7-0.7 2.7-0.7 2.7-0.6 2.7-0.6 2.7-0.6 2.7-0.6 2.7-0.6 2.7-0.5 2.7-0.5 2.7-0.5 2.7-0.5 2.8-0.4 2.8-0.4 2.8-0.4 2.8-0.4 2.8-0.4 2.8-0.3 2.8-0.3 2.8-0.3 2.8-0.3 2.8-0.2 2.8-0.2 2.8-0.2 2.8-0.2 2.8-0.2 2.8-0.1 2.8-0.1 2.8-0.1 2.8-0.1 2.8v14l0.1 2.8 0.1 2.8 0.1 2.8 0.1 2.8 0.2 2.8 0.2 2.8 0.2 2.8 0.2 2.8 0.2 2.8 0.3 2.8 0.3 2.8 0.3 2.8 0.3 2.8 0.4 2.8 0.4 2.8 0.4 2.8 0.4 2.8 0.4 2.8 0.5 2.8 0.5 2.8 0.5 2.8 0.5 2.8 0.6 2.8 0.6 2.8 0.6 2.7 0.6 2.7 0.6 2.7 0.7 2.7 0.7 2.7 0.7 2.7 0.7 2.7 0.8 2.7 0.8 2.7 0.8 2.7 0.8 2.7 0.8 2.7 0.9 2.7 0.9 2.7 0.9 2.7 1.1 1.9zM181 653c0-7.7 6.3-14 14-14s14 6.3 14 14-6.3 14-14 14-14-6.3-14-14zM468.8 178.7c-0.4-0.6-1.1-1-1.9-0.9l-8.3 1-5.5-6.3c-0.5-0.6-1.3-0.8-2-0.6-0.7 0.2-1.3 0.8-1.4 1.5l-1.6 8.2-7.7 3.3c-0.7 0.3-1.1 1-1.2 1.7 0 0.7 0.4 1.5 1 1.8l7.3 4.1 0.8 8.3c0.1 0.7 0.6 1.4 1.3 1.7 0.7 0.3 1.5 0.1 2-0.4l6.2-5.7 8.2 1.8c0.3 0.1 0.6 0.1 0.9 0 0.4-0.1 0.8-0.3 1-0.7 0.5-0.6 0.6-1.4 0.3-2.1l-3.5-7.6 4.3-7.2c0.2-0.5 0.2-1.3-0.2-1.9zM805.8 297.3c-0.2-0.7-0.8-1.2-1.6-1.4l-8.2-1.2-3.7-7.6c-0.3-0.7-1-1.1-1.8-1.1s-1.4 0.4-1.8 1.1l-3.7 7.6-8.2 1.2c-0.7 0.1-1.4 0.6-1.6 1.4-0.2 0.7 0 1.5 0.5 2l6 5.9-1.4 8.3c-0.1 0.8 0.2 1.5 0.8 1.9 0.6 0.4 1.4 0.5 2.1 0.2l7.4-3.9 7.4 3.9c0.3 0.2 0.6 0.2 0.9 0.2 0.4 0 0.8-0.1 1.2-0.4 0.6-0.4 0.9-1.2 0.8-1.9l-1.4-8.3 6-5.9c0.3-0.5 0.5-1.3 0.3-2zM550.8 826.9c-0.2-0.7-0.8-1.2-1.6-1.3l-8.2-1.2-3.7-7.3c-0.3-0.7-1-1.1-1.8-1.1s-1.4 0.4-1.8 1.1l-3.7 7.3-8.2 1.2c-0.7 0.1-1.4 0.6-1.6 1.3-0.2 0.7 0 1.5 0.5 2l6 5.7-1.4 8.1c-0.1 0.7 0.2 1.5 0.8 1.9 0.6 0.4 1.4 0.5 2.1 0.1l7.4-3.8 7.4 3.8c0.3 0.1 0.6 0.2 0.9 0.2 0.4 0 0.8-0.1 1.2-0.4 0.6-0.4 0.9-1.2 0.8-1.9l-1.4-8.1 6-5.7c0.3-0.4 0.5-1.2 0.3-1.9z" fill="#FFFFFF" p-id="1322"></path><path d="M247.4 576.2c0-0.7-0.4-1.4-1.1-1.8l-7.4-3.8-1.1-8.3c-0.1-0.7-0.6-1.4-1.3-1.6-0.7-0.2-1.5-0.1-2 0.5l-6 5.9-8.2-1.6c-0.7-0.1-1.5 0.2-1.9 0.7-0.5 0.6-0.5 1.4-0.2 2.1l3.8 7.5-4 7.3c-0.4 0.7-0.3 1.5 0.1 2.1 0.4 0.6 1.2 0.9 1.9 0.8l8.3-1.3 5.7 6.1c0.2 0.2 0.5 0.4 0.8 0.5 0.4 0.1 0.8 0.1 1.2 0 0.7-0.2 1.2-0.8 1.4-1.6l1.4-8.3 7.6-3.6c0.5-0.1 1-0.8 1-1.6zM800.8 654.3c-0.2-0.7-0.8-1.2-1.6-1.4l-8.2-1.2-3.7-7.6c-0.3-0.7-1-1.1-1.8-1.1s-1.4 0.4-1.8 1.1l-3.7 7.6-8.2 1.2c-0.7 0.1-1.4 0.6-1.6 1.4-0.2 0.7 0 1.5 0.5 2l6 5.9-1.4 8.3c-0.1 0.8 0.2 1.5 0.8 1.9 0.6 0.4 1.4 0.5 2.1 0.2l7.4-3.9 7.4 3.9c0.3 0.2 0.6 0.2 0.9 0.2 0.4 0 0.8-0.1 1.2-0.4 0.6-0.4 0.9-1.2 0.8-1.9l-1.4-8.3 6-5.9c0.3-0.5 0.5-1.3 0.3-2z" fill="#FFFFFF" p-id="1323"></path><path d="M266 512.2c0-5.6 4.5-10.2 10.2-10.2h460.7c5.6 0 10.2 4.5 10.2 10.2v265.7c0 5.6-4.5 10.2-10.2 10.2H276.2c-5.6 0-10.2-4.5-10.2-10.2V512.2z" fill="#D6DCE5" p-id="1324"></path><path d="M502 562c34.8 0 63 28.2 63 63v157H439V625c0-34.8 28.2-63 63-63z" fill="#ADB9CA" p-id="1325"></path><path d="M251.5 762h514c19.1 0 34.5 15.4 34.5 34.5V831H217v-34.5c0-19.1 15.4-34.5 34.5-34.5z" fill="#8497B0" p-id="1326"></path><path d="M670.2 251.3c-0.3-0.3-0.6-0.4-1-0.3l-3.9 1.2-3.2-2.5c-0.3-0.2-0.7-0.3-1-0.1-0.3 0.2-0.5 0.5-0.5 0.8l-0.1 4-3.4 2.2c-0.3 0.2-0.5 0.6-0.4 0.9 0 0.4 0.3 0.7 0.6 0.8l3.8 1.3 1.1 3.9c0.1 0.4 0.4 0.6 0.7 0.7 0.4 0.1 0.7-0.1 0.9-0.4l2.4-3.2 4 0.2c0.2 0 0.3 0 0.4-0.1 0.2-0.1 0.3-0.2 0.4-0.4 0.2-0.3 0.2-0.7-0.1-1L669 256l1.4-3.8c0.1-0.3 0-0.7-0.2-0.9z" fill="#FFFFFF" p-id="1327"></path><path d="M402.9 384.8c-1.7-3.6-0.2-7.9 3.4-9.5l229.4-108.7c3.6-1.7 7.8-0.2 9.5 3.4l38.6 81.4c1.7 3.6 0.2 7.9-3.4 9.5L451 469.6c-3.6 1.7-7.8 0.2-9.5-3.4l-38.6-81.4z" fill="#FACC7E" p-id="1328"></path><path d="M590.6 287.9l17.3-8.2 44.7 94.4-17.3 8.2-44.7-94.4zM440.3 359.1l17.3-8.2 44.7 94.4-17.3 8.2-44.7-94.4z" fill="#F6A824" p-id="1329"></path><path d="M663.5 251.1l4-1.6c26.7-9.5 56.8 2.6 69.2 28.8 12.4 26.1 2.7 57.1-21.5 71.7l-3.8 2-47.9-100.9z" fill="#5EC8FA" p-id="1330"></path><path d="M626.5 257.5c-1.5-3.2-0.2-6.9 3-8.4l22.9-10.8c3.2-1.5 6.9-0.1 8.4 3l55.1 116.2c1.5 3.2 0.2 6.9-3 8.4L690 376.7c-3.2 1.5-6.9 0.1-8.4-3l-55.1-116.2z" fill="#F97B6E" p-id="1331"></path><path d="M294 446c0-49.2 15.7-97.2 44.7-137L528 446H294z" fill="#ADB9CA" p-id="1332"></path><path d="M339 308.8c29-39.9 69.9-69.5 116.8-84.8L528 446 339 308.8z" fill="#D6DCE5" p-id="1333"></path><path d="M286 449.5c0-5.8 4.7-10.5 10.5-10.5h430c5.8 0 10.5 4.7 10.5 10.5v42c0 5.8-4.7 10.5-10.5 10.5h-430c-5.8 0-10.5-4.7-10.5-10.5v-42z" fill="#FACC7E" p-id="1334"></path><path d="M247 441c0-3.9 3.1-7 7-7h515c3.9 0 7 3.1 7 7s-3.1 7-7 7H254c-3.9 0-7-3.1-7-7zM247 504c0-3.9 3.1-7 7-7h515c3.9 0 7 3.1 7 7s-3.1 7-7 7H254c-3.9 0-7-3.1-7-7z" fill="#F6A824" p-id="1335"></path><path d="M533.4 432.3c-1.7-14.8-15.1-25.4-29.8-23.7-14.8 1.7-25.4 15.1-23.7 29.8 1.7 14.8 15.1 25.4 29.8 23.7 14.8-1.6 25.4-15 23.7-29.8z" fill="#44546A" p-id="1336"></path><path d="M550.5 433.3c-2.8-24.3-24.8-41.8-49.1-39s-41.8 24.8-39 49.1c2.8 24.3 24.8 41.8 49.1 39 24.3-2.8 41.7-24.8 39-49.1z m-22.1 2.5c1.4 12.2-7.3 23.2-19.5 24.6-12.2 1.4-23.2-7.3-24.6-19.5-1.4-12.2 7.3-23.2 19.5-24.6 12.2-1.4 23.2 7.3 24.6 19.5z" fill="#F97B6E" p-id="1337"></path><path d="M296 512.5c0-4.7 3.8-8.5 8.5-8.5s8.5 3.8 8.5 8.5v25c0 4.7-3.8 8.5-8.5 8.5s-8.5-3.8-8.5-8.5v-25zM341 512.5c0-4.7 3.8-8.5 8.5-8.5s8.5 3.8 8.5 8.5v25c0 4.7-3.8 8.5-8.5 8.5s-8.5-3.8-8.5-8.5v-25zM386 512.5c0-4.7 3.8-8.5 8.5-8.5s8.5 3.8 8.5 8.5v26c0 4.7-3.8 8.5-8.5 8.5s-8.5-3.8-8.5-8.5v-26zM432 513.5c0-4.7 3.8-8.5 8.5-8.5s8.5 3.8 8.5 8.5v25c0 4.7-3.8 8.5-8.5 8.5s-8.5-3.8-8.5-8.5v-25zM477 513.5c0-4.7 3.8-8.5 8.5-8.5s8.5 3.8 8.5 8.5v26c0 4.7-3.8 8.5-8.5 8.5s-8.5-3.8-8.5-8.5v-26zM522 514.5c0-4.7 3.8-8.5 8.5-8.5s8.5 3.8 8.5 8.5v25c0 4.7-3.8 8.5-8.5 8.5s-8.5-3.8-8.5-8.5v-25zM568 514.5c0-4.7 3.8-8.5 8.5-8.5s8.5 3.8 8.5 8.5v26c0 4.7-3.8 8.5-8.5 8.5s-8.5-3.8-8.5-8.5v-26zM613 514.5c0-4.7 3.8-8.5 8.5-8.5s8.5 3.8 8.5 8.5v26c0 4.7-3.8 8.5-8.5 8.5s-8.5-3.8-8.5-8.5v-26zM658 515.5c0-4.7 3.8-8.5 8.5-8.5s8.5 3.8 8.5 8.5v25c0 4.7-3.8 8.5-8.5 8.5s-8.5-3.8-8.5-8.5v-25zM704 515.5c0-4.7 3.8-8.5 8.5-8.5s8.5 3.8 8.5 8.5v26c0 4.7-3.8 8.5-8.5 8.5s-8.5-3.8-8.5-8.5v-26z" fill="#F6A824" p-id="1338"></path><path d="M505.6 563c35 0 63.4 28.3 63.4 63.2V783h-19.1V626.2c0-30.5-21.7-56-50.7-61.9l-3.2-0.3 9.6-1z" fill="#8497B0" p-id="1339"></path></svg>